<svg xmlns="http://www.w3.org/2000/svg" viewBox="0 0 3600 2000"><title>e-commerce</title><g style="isolation:isolate"><g id="Layer_1" data-name="Layer 1"><rect width="3600" height="2000" style="fill:#fff"/><path d="M692.43,74.35H207.82a65.34,65.34,0,0,0-65.35,65.34v990.42a65.36,65.36,0,0,0,65.35,65.35H692.43a65.35,65.35,0,0,0,65.35-65.35V139.69A65.36,65.36,0,0,0,692.43,74.35Z" transform="translate(698.93 375.28)" style="fill:#141414"/><path d="M186.62,907.1S99,1121.68,107.47,1162.25s61.69,94.82,192.2,76.74,220.71-42.27,220.71-42.27,5.45-289.58,0-304.26S280.28,773.54,271,773.54,186.62,907.1,186.62,907.1Z" transform="translate(698.93 375.28)" style="fill:#f6c19d;opacity:0.2;mix-blend-mode:multiply"/><rect x="873.08" y="538.69" width="551.95" height="942.98" style="fill:#fff"/><path d="M1013.29,753.8h271.52a34.28,34.28,0,0,1,34.28,34.28v359.59a34.27,34.27,0,0,1-34.27,34.27H1013.29A34.27,34.27,0,0,1,979,1147.67V788.07A34.28,34.28,0,0,1,1013.29,753.8Z" style="fill:#dae7f7"/><path d="M331.89,551.9l26.95,129.31a12,12,0,0,0,11.59,9.65H529.82a11.93,11.93,0,0,0,11.58-9.65l27-129.31Zm47.54,126.43a6.53,6.53,0,0,1-6.53-6.53l-9-91.65a6.53,6.53,0,1,1,13,0L386,671.8A6.52,6.52,0,0,1,379.43,678.33Zm32.82,0h0a6.53,6.53,0,0,1-6.53-6.53l-3.62-91.65a6.53,6.53,0,0,1,13.06,0l3.62,91.65A6.53,6.53,0,0,1,412.25,678.33Zm44.4-6.53a6.53,6.53,0,1,1-13,0V580.15a6.53,6.53,0,1,1,13,0Zm37.87,0a6.53,6.53,0,1,1-13,0l3.62-91.65a6.53,6.53,0,1,1,13.05,0Zm32.83,0a6.53,6.53,0,0,1-13.06,0l9.05-91.65a6.53,6.53,0,0,1,13.06,0Z" transform="translate(698.93 375.28)" style="fill:#7a5cf7"/><path d="M570,562.35H330.21a10.44,10.44,0,0,1-10.44-10.45h0a10.43,10.43,0,0,1,10.44-10.44H570a10.44,10.44,0,0,1,10.45,10.44h0A10.45,10.45,0,0,1,570,562.35Z" transform="translate(698.93 375.28)" style="fill:#7a5cf7"/><path d="M380.58,542.25v-9A27.21,27.21,0,0,1,407.79,506h84.67a27.21,27.21,0,0,1,27.21,27.21v9a5.84,5.84,0,0,0,5.85,5.84h0a5.84,5.84,0,0,0,5.85-5.84v-9a38.91,38.91,0,0,0-38.91-38.91H407.79a38.91,38.91,0,0,0-38.91,38.91v9a5.84,5.84,0,0,0,5.85,5.84h0A5.84,5.84,0,0,0,380.58,542.25Z" transform="translate(698.93 375.28)" style="fill:#7a5cf7"/><rect x="1031.41" y="497.24" width="236.19" height="11.82" rx="4.75" style="fill:#fff"/><path d="M131.46,1551.42l-.48-.18a5,5,0,0,1-2.92-6.4l7.89-21.15a5,5,0,0,1,6.41-2.92l.48.18a5,5,0,0,1,2.92,6.4l-7.89,21.15A5,5,0,0,1,131.46,1551.42Z" transform="translate(698.93 375.28)"/><path d="M162,1556.55l-.48-.18a5,5,0,0,1-2.92-6.41l7.89-21.14a5,5,0,0,1,6.4-2.93l.49.19a5,5,0,0,1,2.92,6.4l-7.89,21.15A5,5,0,0,1,162,1556.55Z" transform="translate(698.93 375.28)"/><path d="M1193.18,650.06h88a0,0,0,0,1,0,0v32.85a43.8,43.8,0,0,1-43.8,43.8H1237a43.8,43.8,0,0,1-43.8-43.8V650.06A0,0,0,0,1,1193.18,650.06Z" style="fill:#4d22d3"/><path d="M1105.13,650.06h88a0,0,0,0,1,0,0v32.85a43.8,43.8,0,0,1-43.8,43.8h-.45a43.8,43.8,0,0,1-43.8-43.8V650.06A0,0,0,0,1,1105.13,650.06Z" style="fill:#5837e2"/><path d="M1017.08,650.06h88a0,0,0,0,1,0,0v32.85a43.8,43.8,0,0,1-43.8,43.8h-.45a43.8,43.8,0,0,1-43.8-43.8V650.06a0,0,0,0,1,0,0Z" style="fill:#4d22d3"/><path d="M929,650.06h88a0,0,0,0,1,0,0v32.85a43.8,43.8,0,0,1-43.8,43.8h-.45a43.8,43.8,0,0,1-43.8-43.8V650.06a0,0,0,0,1,0,0Z" style="fill:#5837e2"/><path d="M841,650.06h88a0,0,0,0,1,0,0v32.85a43.8,43.8,0,0,1-43.8,43.8h-.45a43.8,43.8,0,0,1-43.8-43.8V650.06a0,0,0,0,1,0,0Z" style="fill:#4d22d3"/><path d="M1457.12,650.06h88a0,0,0,0,1,0,0v32.85a43.8,43.8,0,0,1-43.8,43.8h-.45a43.8,43.8,0,0,1-43.8-43.8V650.06A0,0,0,0,1,1457.12,650.06Z" style="fill:#5837e2"/><path d="M1369.07,650.06h88a0,0,0,0,1,0,0v32.85a43.8,43.8,0,0,1-43.8,43.8h-.45a43.8,43.8,0,0,1-43.8-43.8V650.06a0,0,0,0,1,0,0Z" style="fill:#4d22d3"/><path d="M1281.23,650.06h88a0,0,0,0,1,0,0v32.85a43.8,43.8,0,0,1-43.8,43.8H1325a43.8,43.8,0,0,1-43.8-43.8V650.06a0,0,0,0,1,0,0Z" style="fill:#5837e2"/><path d="M752.94,650.06h88a0,0,0,0,1,0,0v32.85a43.8,43.8,0,0,1-43.8,43.8h-.45a43.8,43.8,0,0,1-43.8-43.8V650.06a0,0,0,0,1,0,0Z" style="fill:#5837e2"/><polygon points="1180.46 538.69 1117.86 538.69 1105.13 650.06 1193.18 650.06 1180.46 538.69" style="fill:#7049e8"/><polygon points="1117.86 538.69 1055.25 538.69 1017.08 650.06 1105.13 650.06 1117.86 538.69" style="fill:#652eed"/><polygon points="1055.25 538.69 992.65 538.69 929.04 650.06 1017.08 650.06 1055.25 538.69" style="fill:#7049e8"/><polygon points="992.65 538.69 930.05 538.69 840.99 650.06 929.04 650.06 992.65 538.69" style="fill:#652eed"/><polygon points="930.05 538.69 867.45 538.69 752.94 650.06 840.99 650.06 930.05 538.69" style="fill:#7049e8"/><polygon points="1430.44 538.69 1367.84 538.69 1457.12 650.06 1545.17 650.06 1430.44 538.69" style="fill:#7049e8"/><polygon points="1368.15 538.69 1305.55 538.69 1369.07 650.06 1457.12 650.06 1368.15 538.69" style="fill:#652eed"/><polygon points="1305.55 538.69 1242.95 538.69 1281.23 650.06 1369.28 650.06 1305.55 538.69" style="fill:#7049e8"/><polygon points="1242.95 538.69 1180.35 538.69 1193.18 650.06 1281.23 650.06 1242.95 538.69" style="fill:#652eed"/><rect x="945.1" y="1241.33" width="407.91" height="77.1" rx="33.59" style="fill:#4385d8"/><path d="M367.75,910.62a10.07,10.07,0,0,1-.4,2.88,8.5,8.5,0,0,1-1.12,2.37,7.79,7.79,0,0,1-1.73,1.85,9.82,9.82,0,0,1-2.28,1.33,12.93,12.93,0,0,1-2.71.81,18.27,18.27,0,0,1-3.32.27h-8.66a1.79,1.79,0,0,1-1.12-.4,1.64,1.64,0,0,1-.52-1.4V888.76a1.66,1.66,0,0,1,.52-1.4,1.84,1.84,0,0,1,1.12-.39h7.53a17.33,17.33,0,0,1,4.87.56,8.73,8.73,0,0,1,3.17,1.64,6.78,6.78,0,0,1,1.9,2.64,9.18,9.18,0,0,1,.64,3.53,8.8,8.8,0,0,1-.28,2.26,7.16,7.16,0,0,1-.83,2,6.86,6.86,0,0,1-1.38,1.62,7.29,7.29,0,0,1-1.91,1.18,8.19,8.19,0,0,1,2.54.94,7.75,7.75,0,0,1,2.06,1.73,8,8,0,0,1,1.39,2.46A8.81,8.81,0,0,1,367.75,910.62Zm-6.64-14.84a6.79,6.79,0,0,0-.33-2.18,4.06,4.06,0,0,0-1-1.65,4.75,4.75,0,0,0-1.87-1,10.43,10.43,0,0,0-3-.36h-4.55v10.74h5a7.1,7.1,0,0,0,2.76-.45,5,5,0,0,0,1.74-1.2,4.58,4.58,0,0,0,1-1.77A7,7,0,0,0,361.11,895.78Zm2,15.1a6.66,6.66,0,0,0-.48-2.62,4.83,4.83,0,0,0-1.38-1.89A5.88,5.88,0,0,0,359,905.2a12.35,12.35,0,0,0-3.44-.4h-5.27v11.69h6.39a8.69,8.69,0,0,0,2.64-.36,5.9,5.9,0,0,0,2-1.06,4.89,4.89,0,0,0,1.34-1.76A5.64,5.64,0,0,0,363.11,910.88Z" transform="translate(698.93 375.28)" style="fill:#fff"/><path d="M399.37,907.88a15.31,15.31,0,0,1-.88,5.39,10.94,10.94,0,0,1-2.53,4,10.48,10.48,0,0,1-4,2.49,16,16,0,0,1-5.36.84,14.94,14.94,0,0,1-5-.79,10.68,10.68,0,0,1-3.87-2.34,10.36,10.36,0,0,1-2.48-3.89,15.11,15.11,0,0,1-.87-5.38V887.63a.65.65,0,0,1,.1-.36.67.67,0,0,1,.36-.24,3.63,3.63,0,0,1,.66-.15,8.14,8.14,0,0,1,2.13,0,3.35,3.35,0,0,1,.68.15.65.65,0,0,1,.34.24.66.66,0,0,1,.11.36v20a13.16,13.16,0,0,0,.56,4,7.56,7.56,0,0,0,1.63,2.85,6.73,6.73,0,0,0,2.56,1.72,9.2,9.2,0,0,0,3.37.58,9.58,9.58,0,0,0,3.42-.57,6.45,6.45,0,0,0,2.54-1.69,7.61,7.61,0,0,0,1.59-2.79,12.36,12.36,0,0,0,.55-3.9V887.63a.65.65,0,0,1,.1-.36.71.71,0,0,1,.36-.24,3.7,3.7,0,0,1,.68-.15,6.32,6.32,0,0,1,1.06-.07,6.14,6.14,0,0,1,1,.07,3.39,3.39,0,0,1,.67.15.81.81,0,0,1,.36.24.66.66,0,0,1,.11.36Z" transform="translate(698.93 375.28)" style="fill:#fff"/><path d="M426.56,918.31a4.88,4.88,0,0,1-.05.81,1.53,1.53,0,0,1-.18.57.74.74,0,0,1-.29.33.7.7,0,0,1-.37.11H409.75a1.78,1.78,0,0,1-1.11-.4,1.65,1.65,0,0,1-.53-1.4V888.76a1.66,1.66,0,0,1,.53-1.4,1.83,1.83,0,0,1,1.11-.39h15.74a.69.69,0,0,1,.37.1.75.75,0,0,1,.27.33,2.4,2.4,0,0,1,.16.58,4.2,4.2,0,0,1,.07.86,3.84,3.84,0,0,1-.07.8,2.31,2.31,0,0,1-.16.57.67.67,0,0,1-.64.42h-13V901h11.12a.6.6,0,0,1,.37.11,1,1,0,0,1,.29.32,1.78,1.78,0,0,1,.16.56,5.4,5.4,0,0,1,.05.85,4.75,4.75,0,0,1-.05.8,1.58,1.58,0,0,1-.16.53.7.7,0,0,1-.29.3.75.75,0,0,1-.37.09H412.52v11.86h13.15a.7.7,0,0,1,.37.11.83.83,0,0,1,.29.32,1.37,1.37,0,0,1,.18.56A5.3,5.3,0,0,1,426.56,918.31Z" transform="translate(698.93 375.28)" style="fill:#fff"/><path d="M470.67,918.31a2.08,2.08,0,0,1-.17.87,1.81,1.81,0,0,1-.45.59,1.86,1.86,0,0,1-.62.33,2.37,2.37,0,0,1-.69.11h-1.46a4.4,4.4,0,0,1-1.21-.15,2.64,2.64,0,0,1-1-.51,5.15,5.15,0,0,1-.93-1,15.06,15.06,0,0,1-1-1.64L453.06,898c-.53-1-1.06-2-1.6-3.07s-1-2.1-1.5-3.11h0c0,1.23.06,2.49.08,3.77s0,2.55,0,3.82v20a.66.66,0,0,1-.11.35.68.68,0,0,1-.37.25,3.68,3.68,0,0,1-.67.16,7.85,7.85,0,0,1-1.07.06,7.74,7.74,0,0,1-1.07-.06,3.18,3.18,0,0,1-.66-.16.65.65,0,0,1-.36-.25.64.64,0,0,1-.1-.35v-30.6a1.7,1.7,0,0,1,.58-1.46,2.07,2.07,0,0,1,1.27-.43h2.17a5.73,5.73,0,0,1,1.28.12,2.82,2.82,0,0,1,.93.43,3.66,3.66,0,0,1,.79.82,11.59,11.59,0,0,1,.81,1.32l7.77,14.55,1.39,2.6,1.29,2.5,1.22,2.43c.41.79.81,1.59,1.21,2.39h0c0-1.35-.06-2.75-.06-4.21s0-2.87,0-4.22v-18a.57.57,0,0,1,.11-.33.73.73,0,0,1,.37-.27,2.1,2.1,0,0,1,.67-.17,8.38,8.38,0,0,1,1.1-.05,7.88,7.88,0,0,1,1,.05,2,2,0,0,1,.67.17.76.76,0,0,1,.35.27.51.51,0,0,1,.11.33Z" transform="translate(698.93 375.28)" style="fill:#fff"/><path d="M507.27,903.16a25.9,25.9,0,0,1-.95,7.26,15.2,15.2,0,0,1-2.83,5.49,12.39,12.39,0,0,1-4.73,3.49,16.81,16.81,0,0,1-6.64,1.21,17.14,17.14,0,0,1-6.47-1.11,11.34,11.34,0,0,1-4.51-3.24,13.82,13.82,0,0,1-2.65-5.28,27.34,27.34,0,0,1-.87-7.25,25.17,25.17,0,0,1,.94-7.13,14.85,14.85,0,0,1,2.85-5.44,12.46,12.46,0,0,1,4.74-3.46,16.64,16.64,0,0,1,6.64-1.22,16.81,16.81,0,0,1,6.38,1.1,11.58,11.58,0,0,1,4.52,3.22,13.73,13.73,0,0,1,2.7,5.23A26.49,26.49,0,0,1,507.27,903.16Zm-4.67.31a26.14,26.14,0,0,0-.49-5.24,12.14,12.14,0,0,0-1.67-4.21,7.94,7.94,0,0,0-3.11-2.77,10.41,10.41,0,0,0-4.81-1,9.78,9.78,0,0,0-4.81,1.07,9.09,9.09,0,0,0-3.16,2.87,12,12,0,0,0-1.74,4.19,23.53,23.53,0,0,0-.53,5,27.29,27.29,0,0,0,.49,5.38,11.85,11.85,0,0,0,1.64,4.24,7.78,7.78,0,0,0,3.08,2.77,10.6,10.6,0,0,0,4.85,1,10,10,0,0,0,4.86-1.08,8.74,8.74,0,0,0,3.18-2.91,12.27,12.27,0,0,0,1.71-4.24A24.64,24.64,0,0,0,502.6,903.47Z" transform="translate(698.93 375.28)" style="fill:#fff"/><path d="M545.43,919.16a1.36,1.36,0,0,1-.31.57,1.15,1.15,0,0,1-.56.33,3.91,3.91,0,0,1-.89.17c-.35,0-.78,0-1.29,0s-1,0-1.35,0a4,4,0,0,1-.91-.17,1.08,1.08,0,0,1-.54-.33,1.78,1.78,0,0,1-.28-.57l-6.94-25h-.05l-6.41,25a1.31,1.31,0,0,1-.26.57,1,1,0,0,1-.51.33,3.43,3.43,0,0,1-.86.17c-.35,0-.8,0-1.34,0s-1,0-1.41,0a3.88,3.88,0,0,1-.92-.17,1.15,1.15,0,0,1-.56-.33,1.31,1.31,0,0,1-.26-.57L511,888.53a5,5,0,0,1-.17-.92.6.6,0,0,1,.21-.52,1.36,1.36,0,0,1,.7-.23c.33,0,.76-.05,1.31-.05s1,0,1.26,0a2.51,2.51,0,0,1,.7.14.62.62,0,0,1,.33.28,1.67,1.67,0,0,1,.14.46L523,915.51h0l7.07-27.72a2.18,2.18,0,0,1,.19-.48.67.67,0,0,1,.38-.29,3,3,0,0,1,.73-.16c.31,0,.73-.05,1.24-.05a11,11,0,0,1,1.14.05,3,3,0,0,1,.68.16.69.69,0,0,1,.37.29,1.78,1.78,0,0,1,.19.48l7.61,27.72h.06l7.3-27.75q.07-.25.15-.45a.54.54,0,0,1,.32-.29,2.92,2.92,0,0,1,.7-.16c.29,0,.69-.05,1.19-.05a7.92,7.92,0,0,1,1.22.07,1.27,1.27,0,0,1,.65.24.59.59,0,0,1,.19.51,5.29,5.29,0,0,1-.14.92Z" transform="translate(698.93 375.28)" style="fill:#fff"/></g></g></svg>