<svg xmlns="http://www.w3.org/2000/svg" viewBox="0 0 792.23 1168.22"><title>s4</title><g style="isolation:isolate"><g id="Layer_1" data-name="Layer 1"><path d="M695.87,78.44H211.26a65.35,65.35,0,0,0-65.35,65.35V1134.2a65.36,65.36,0,0,0,65.35,65.35H695.87a65.35,65.35,0,0,0,65.35-65.35V143.79A65.36,65.36,0,0,0,695.87,78.44Z" transform="translate(-57.45 -78.44)" style="fill:#141414"/><path d="M190.06,911.2s-87.65,214.57-79.15,255.14,61.7,94.83,192.2,76.74,220.71-42.26,220.71-42.26,5.46-289.58,0-304.27S283.72,777.63,274.49,777.63,190.06,911.2,190.06,911.2Z" transform="translate(-57.45 -78.44)" style="fill:#f6c19d;opacity:0.2;mix-blend-mode:multiply"/><rect x="120.14" y="89.06" width="551.95" height="942.98" style="fill:#fff"/><path d="M260.35,304.17H531.87a34.28,34.28,0,0,1,34.28,34.28V698a34.27,34.27,0,0,1-34.27,34.27H260.35A34.27,34.27,0,0,1,226.08,698V338.44A34.28,34.28,0,0,1,260.35,304.17Z" style="fill:#dae7f7"/><path d="M335.34,556l27,129.31A11.94,11.94,0,0,0,373.87,695H533.26a12,12,0,0,0,11.59-9.64L571.8,556Zm47.53,126.42a6.53,6.53,0,0,1-6.53-6.52l-9-91.66a6.53,6.53,0,0,1,13.06,0l9,91.66A6.53,6.53,0,0,1,382.87,682.42Zm32.82,0h0a6.52,6.52,0,0,1-6.52-6.52l-3.62-91.66a6.53,6.53,0,0,1,13.05,0l3.62,91.66A6.52,6.52,0,0,1,415.69,682.42Zm44.4-6.52a6.53,6.53,0,0,1-13,0V584.24a6.53,6.53,0,0,1,13,0Zm37.88,0a6.53,6.53,0,0,1-13.06,0l3.62-91.66a6.53,6.53,0,0,1,13.06,0Zm32.82,0a6.53,6.53,0,0,1-13,0l9-91.66a6.53,6.53,0,0,1,13.05,0Z" transform="translate(-57.45 -78.44)" style="fill:#7a5cf7"/><path d="M573.48,566.44H333.66A10.44,10.44,0,0,1,323.21,556h0a10.45,10.45,0,0,1,10.45-10.45H573.48A10.44,10.44,0,0,1,583.92,556h0A10.43,10.43,0,0,1,573.48,566.44Z" transform="translate(-57.45 -78.44)" style="fill:#7a5cf7"/><path d="M384,546.34v-9a27.22,27.22,0,0,1,27.21-27.22H495.9a27.22,27.22,0,0,1,27.22,27.22v9a5.84,5.84,0,0,0,5.84,5.85h0a5.85,5.85,0,0,0,5.85-5.85v-9a38.91,38.91,0,0,0-38.91-38.91H411.23a38.91,38.91,0,0,0-38.91,38.91v9a5.85,5.85,0,0,0,5.85,5.85h0A5.85,5.85,0,0,0,384,546.34Z" transform="translate(-57.45 -78.44)" style="fill:#7a5cf7"/><rect x="278.47" y="47.61" width="236.19" height="11.82" rx="4.75" style="fill:#fff"/><path d="M440.24,200.43h88a0,0,0,0,1,0,0v32.85a43.8,43.8,0,0,1-43.8,43.8H484a43.8,43.8,0,0,1-43.8-43.8V200.43A0,0,0,0,1,440.24,200.43Z" style="fill:#4d22d3"/><path d="M352.19,200.43h88a0,0,0,0,1,0,0v32.85a43.8,43.8,0,0,1-43.8,43.8H396a43.8,43.8,0,0,1-43.8-43.8V200.43A0,0,0,0,1,352.19,200.43Z" style="fill:#5837e2"/><path d="M264.14,200.43h88a0,0,0,0,1,0,0v32.85a43.8,43.8,0,0,1-43.8,43.8h-.45a43.8,43.8,0,0,1-43.8-43.8V200.43A0,0,0,0,1,264.14,200.43Z" style="fill:#4d22d3"/><path d="M176.1,200.43h88a0,0,0,0,1,0,0v32.85a43.8,43.8,0,0,1-43.8,43.8h-.45a43.8,43.8,0,0,1-43.8-43.8V200.43a0,0,0,0,1,0,0Z" style="fill:#5837e2"/><path d="M88,200.43h88a0,0,0,0,1,0,0v32.85a43.8,43.8,0,0,1-43.8,43.8h-.45A43.8,43.8,0,0,1,88,233.28V200.43A0,0,0,0,1,88,200.43Z" style="fill:#4d22d3"/><path d="M704.18,200.43h88a0,0,0,0,1,0,0v32.85a43.8,43.8,0,0,1-43.8,43.8H748a43.8,43.8,0,0,1-43.8-43.8V200.43A0,0,0,0,1,704.18,200.43Z" style="fill:#5837e2"/><path d="M616.13,200.43h88a0,0,0,0,1,0,0v32.85a43.8,43.8,0,0,1-43.8,43.8h-.45a43.8,43.8,0,0,1-43.8-43.8V200.43A0,0,0,0,1,616.13,200.43Z" style="fill:#4d22d3"/><path d="M528.29,200.43h88a0,0,0,0,1,0,0v32.85a43.8,43.8,0,0,1-43.8,43.8h-.45a43.8,43.8,0,0,1-43.8-43.8V200.43A0,0,0,0,1,528.29,200.43Z" style="fill:#5837e2"/><path d="M0,200.43H88a0,0,0,0,1,0,0v32.85a43.8,43.8,0,0,1-43.8,43.8H43.8A43.8,43.8,0,0,1,0,233.28V200.43A0,0,0,0,1,0,200.43Z" style="fill:#5837e2"/><polygon points="427.51 89.06 364.91 89.06 352.19 200.43 440.24 200.43 427.51 89.06" style="fill:#7049e8"/><polygon points="364.91 89.06 302.31 89.06 264.14 200.43 352.19 200.43 364.91 89.06" style="fill:#652eed"/><polygon points="302.31 89.06 239.71 89.06 176.1 200.43 264.14 200.43 302.31 89.06" style="fill:#7049e8"/><polygon points="239.71 89.06 177.11 89.06 88.05 200.43 176.1 200.43 239.71 89.06" style="fill:#652eed"/><polygon points="177.11 89.06 114.51 89.06 0 200.43 88.05 200.43 177.11 89.06" style="fill:#7049e8"/><polygon points="677.5 89.06 614.9 89.06 704.18 200.43 792.23 200.43 677.5 89.06" style="fill:#7049e8"/><polygon points="615.21 89.06 552.61 89.06 616.13 200.43 704.18 200.43 615.21 89.06" style="fill:#652eed"/><polygon points="552.61 89.06 490.01 89.06 528.29 200.43 616.33 200.43 552.61 89.06" style="fill:#7049e8"/><polygon points="490.01 89.06 427.41 89.06 440.24 200.43 528.29 200.43 490.01 89.06" style="fill:#652eed"/><rect x="192.16" y="791.7" width="407.91" height="77.1" rx="33.59" style="fill:#4385d8"/><path d="M371.19,914.71a9.8,9.8,0,0,1-.4,2.89,8.16,8.16,0,0,1-2.84,4.21,10.28,10.28,0,0,1-2.28,1.34,13,13,0,0,1-2.72.8,18.2,18.2,0,0,1-3.32.27H351a1.83,1.83,0,0,1-1.12-.4,1.63,1.63,0,0,1-.52-1.39V892.85a1.63,1.63,0,0,1,.52-1.39,1.83,1.83,0,0,1,1.12-.4h7.53a17.65,17.65,0,0,1,4.87.56,8.81,8.81,0,0,1,3.17,1.64,6.91,6.91,0,0,1,1.91,2.64,9.23,9.23,0,0,1,.64,3.54,8.67,8.67,0,0,1-.28,2.25,7.36,7.36,0,0,1-.84,2,6.47,6.47,0,0,1-1.38,1.63,7.39,7.39,0,0,1-1.91,1.18,8.07,8.07,0,0,1,2.54.93,7.82,7.82,0,0,1,3.46,4.19A9.08,9.08,0,0,1,371.19,914.71Zm-6.64-14.83a6.74,6.74,0,0,0-.33-2.18,4.06,4.06,0,0,0-1.05-1.66,4.64,4.64,0,0,0-1.86-1,10.55,10.55,0,0,0-3.05-.36h-4.55v10.73h5a7.08,7.08,0,0,0,2.76-.44,4.89,4.89,0,0,0,1.74-1.21,4.58,4.58,0,0,0,1-1.77A6.65,6.65,0,0,0,364.55,899.88Zm2,15.09a6.79,6.79,0,0,0-.47-2.61,5.07,5.07,0,0,0-1.38-1.9,6.3,6.3,0,0,0-2.28-1.17,12.78,12.78,0,0,0-3.44-.39h-5.27v11.68h6.4a8.66,8.66,0,0,0,2.63-.36,5.72,5.72,0,0,0,2-1.06,4.94,4.94,0,0,0,1.35-1.76A5.76,5.76,0,0,0,366.55,915Z" transform="translate(-57.45 -78.44)" style="fill:#fff"/><path d="M402.82,912a15.36,15.36,0,0,1-.89,5.4,11.14,11.14,0,0,1-2.52,4,10.7,10.7,0,0,1-4,2.48,15.66,15.66,0,0,1-5.36.85,15.24,15.24,0,0,1-5-.79,10.58,10.58,0,0,1-3.86-2.35,10.3,10.3,0,0,1-2.49-3.88,15.37,15.37,0,0,1-.87-5.38V891.72a.6.6,0,0,1,.1-.35.67.67,0,0,1,.36-.25A3.57,3.57,0,0,1,379,891a7.64,7.64,0,0,1,1.07-.06,7.83,7.83,0,0,1,1.05.06,3.35,3.35,0,0,1,.68.15.68.68,0,0,1,.35.25.6.6,0,0,1,.1.35v20a13.1,13.1,0,0,0,.56,4,7.69,7.69,0,0,0,1.63,2.86,6.75,6.75,0,0,0,2.57,1.71,9.18,9.18,0,0,0,3.36.58,9.6,9.6,0,0,0,3.43-.56,6.52,6.52,0,0,0,2.53-1.69,7.46,7.46,0,0,0,1.59-2.8,12.34,12.34,0,0,0,.55-3.89V891.72a.61.61,0,0,1,.11-.35.6.6,0,0,1,.36-.25,3.57,3.57,0,0,1,.67-.15,8,8,0,0,1,1.07-.06,7.42,7.42,0,0,1,1,.06,3.23,3.23,0,0,1,.67.15.75.75,0,0,1,.36.25.55.55,0,0,1,.12.35Z" transform="translate(-57.45 -78.44)" style="fill:#fff"/><path d="M430,922.4a6.27,6.27,0,0,1-.05.81,2.09,2.09,0,0,1-.18.58,1,1,0,0,1-.3.33.66.66,0,0,1-.37.1H413.2a1.79,1.79,0,0,1-1.12-.4,1.63,1.63,0,0,1-.52-1.39V892.85a1.63,1.63,0,0,1,.52-1.39,1.79,1.79,0,0,1,1.12-.4h15.73a.66.66,0,0,1,.37.1.73.73,0,0,1,.27.34,2.28,2.28,0,0,1,.17.57,5.17,5.17,0,0,1,.06.86,4.79,4.79,0,0,1-.06.81,2.07,2.07,0,0,1-.17.56.72.72,0,0,1-.27.32.66.66,0,0,1-.37.1H416v10.41h11.13a.63.63,0,0,1,.37.12.94.94,0,0,1,.28.31,1.76,1.76,0,0,1,.17.57,6.78,6.78,0,0,1,0,.84,6,6,0,0,1,0,.8,1.72,1.72,0,0,1-.17.54.7.7,0,0,1-.65.38H416v11.87h13.15a.66.66,0,0,1,.37.1,1,1,0,0,1,.3.32,1.84,1.84,0,0,1,.18.56A6.75,6.75,0,0,1,430,922.4Z" transform="translate(-57.45 -78.44)" style="fill:#fff"/><path d="M474.11,922.4a1.9,1.9,0,0,1-.17.87,1.57,1.57,0,0,1-.45.59,1.64,1.64,0,0,1-.62.34,2.35,2.35,0,0,1-.69.1h-1.46a4.71,4.71,0,0,1-1.2-.14,2.63,2.63,0,0,1-1-.51,5.23,5.23,0,0,1-.93-1,12.79,12.79,0,0,1-1-1.64l-10.11-18.86c-.53-1-1.07-2-1.6-3.06s-1-2.11-1.5-3.12h-.05c0,1.23.06,2.49.07,3.77s0,2.56,0,3.82v20a.63.63,0,0,1-.11.35.68.68,0,0,1-.36.26,3.9,3.9,0,0,1-.68.15,8.21,8.21,0,0,1-2.14,0,3.27,3.27,0,0,1-.66-.15.69.69,0,0,1-.35-.26.63.63,0,0,1-.11-.35V893a1.68,1.68,0,0,1,.58-1.46,2,2,0,0,1,1.27-.44h2.17a5.15,5.15,0,0,1,1.28.13,2.47,2.47,0,0,1,.93.42,3.66,3.66,0,0,1,.79.82,10.32,10.32,0,0,1,.81,1.32l7.78,14.56c.47.88.94,1.75,1.38,2.6s.88,1.68,1.29,2.5.82,1.62,1.23,2.42.8,1.59,1.2,2.4h0c0-1.35,0-2.76-.06-4.22s0-2.87,0-4.22v-18a.51.51,0,0,1,.11-.33.89.89,0,0,1,.36-.27,2.49,2.49,0,0,1,.68-.17,10.38,10.38,0,0,1,1.09,0,10,10,0,0,1,1,0,2.39,2.39,0,0,1,.68.17.92.92,0,0,1,.35.27.56.56,0,0,1,.1.33Z" transform="translate(-57.45 -78.44)" style="fill:#fff"/><path d="M510.71,907.26a25.42,25.42,0,0,1-.95,7.25,15.17,15.17,0,0,1-2.83,5.5,12.29,12.29,0,0,1-4.73,3.48,16.76,16.76,0,0,1-6.63,1.22,17,17,0,0,1-6.48-1.12,11.24,11.24,0,0,1-4.5-3.24,13.76,13.76,0,0,1-2.66-5.28,27.29,27.29,0,0,1-.87-7.25,25.21,25.21,0,0,1,.95-7.13,14.91,14.91,0,0,1,2.84-5.44,12.72,12.72,0,0,1,4.74-3.46,16.81,16.81,0,0,1,6.64-1.22,17,17,0,0,1,6.38,1.1,11.69,11.69,0,0,1,4.53,3.22,13.72,13.72,0,0,1,2.69,5.23A26.17,26.17,0,0,1,510.71,907.26Zm-4.66.3a26.19,26.19,0,0,0-.5-5.24,12.15,12.15,0,0,0-1.66-4.2,8.07,8.07,0,0,0-3.12-2.78,10.38,10.38,0,0,0-4.81-1,9.8,9.8,0,0,0-4.81,1.08,8.91,8.91,0,0,0-3.16,2.87,11.88,11.88,0,0,0-1.74,4.19,23.37,23.37,0,0,0-.52,5,28.11,28.11,0,0,0,.48,5.38,11.9,11.9,0,0,0,1.64,4.25,7.89,7.89,0,0,0,3.08,2.76,10.6,10.6,0,0,0,4.85,1,10.16,10.16,0,0,0,4.87-1.07,8.79,8.79,0,0,0,3.17-2.91,12.61,12.61,0,0,0,1.72-4.25A24.5,24.5,0,0,0,506.05,907.56Z" transform="translate(-57.45 -78.44)" style="fill:#fff"/><path d="M548.87,923.25a1.4,1.4,0,0,1-.3.57,1.34,1.34,0,0,1-.57.34,5.29,5.29,0,0,1-.88.17c-.35,0-.78,0-1.3,0s-1,0-1.34,0a5.31,5.31,0,0,1-.91-.17,1.12,1.12,0,0,1-.54-.34,1.52,1.52,0,0,1-.28-.57l-7-25h0l-6.41,25a1.25,1.25,0,0,1-.25.57,1.12,1.12,0,0,1-.51.34,4.83,4.83,0,0,1-.86.17c-.36,0-.8,0-1.35,0s-1,0-1.41,0a5.45,5.45,0,0,1-.92-.17,1.2,1.2,0,0,1-.55-.34,1.17,1.17,0,0,1-.27-.57l-8.77-30.63a4.79,4.79,0,0,1-.16-.92.6.6,0,0,1,.2-.51,1.32,1.32,0,0,1,.71-.23,11.47,11.47,0,0,1,1.3-.05q.79,0,1.26,0a2.84,2.84,0,0,1,.7.14.62.62,0,0,1,.34.29,1.94,1.94,0,0,1,.14.46l7.46,27.78h0l7.08-27.73a1.78,1.78,0,0,1,.19-.48.79.79,0,0,1,.37-.29,2.63,2.63,0,0,1,.73-.15,10.65,10.65,0,0,1,1.24-.05,8.77,8.77,0,0,1,1.14.05,2.47,2.47,0,0,1,.68.15.74.74,0,0,1,.37.29,1.78,1.78,0,0,1,.2.48L546,919.61h.05l7.3-27.76c0-.17.11-.32.16-.45a.58.58,0,0,1,.32-.29,2.38,2.38,0,0,1,.69-.15,9.64,9.64,0,0,1,1.19-.05A9.74,9.74,0,0,1,557,891a1.2,1.2,0,0,1,.65.24.59.59,0,0,1,.19.51,4.54,4.54,0,0,1-.14.93Z" transform="translate(-57.45 -78.44)" style="fill:#fff"/></g></g></svg>